<svg width="17" height="11" viewBox="0 0 17 11" fill="none" xmlns="http://www.w3.org/2000/svg">
<path d="M14.471 1.72707C14.471 0.899239 13.7207 0.221924 12.8038 0.221924H10.303V1.72707H12.8038V3.72138L9.90285 6.99507H6.96859V3.23221H3.63419C1.79194 3.23221 0.299805 4.57932 0.299805 6.2425V8.50022H1.967C1.967 9.74949 3.08402 10.7579 4.46779 10.7579C5.85156 10.7579 6.96859 9.74949 6.96859 8.50022H10.7031L14.471 4.24819V1.72707ZM4.46779 9.25279C4.00931 9.25279 3.63419 8.91413 3.63419 8.50022H5.30139C5.30139 8.91413 4.92627 9.25279 4.46779 9.25279Z" fill="black"/>
<path d="M6.96854 0.974487H2.80054V2.47961H6.96854V0.974487Z" fill="black"/>
<path d="M14.471 6.24249C13.0872 6.24249 11.9702 7.25093 11.9702 8.5002C11.9702 9.74946 13.0872 10.7579 14.471 10.7579C15.8548 10.7579 16.9718 9.74946 16.9718 8.5002C16.9718 7.25093 15.8548 6.24249 14.471 6.24249ZM14.471 9.25277C14.0125 9.25277 13.6374 8.91411 13.6374 8.5002C13.6374 8.08629 14.0125 7.74763 14.471 7.74763C14.9295 7.74763 15.3046 8.08629 15.3046 8.5002C15.3046 8.91411 14.9295 9.25277 14.471 9.25277Z" fill="black"/>
</svg>
